<svg version="1" xmlns="http://www.w3.org/2000/svg" width="1445.333" height="1445.333" viewBox="0 0 1084.000000 1084.000000"><path d="M143 74.1c-20.1 3.2-37.6 17.3-45.4 36.5-1.4 3.3-2.8 8-3.2 10.4-1.1 5.8-1.2 702.9-.1 709.3 3.6 22.2 22.6 41.8 45.6 47 5.6 1.3 34.4 1.5 212.4 1.5 113.2 0 206.1.3 206.4.6.3.2 0 2.7-.6 5.3-.6 2.6-1.3 5.9-1.5 7.3-.2 1.4-.7 3.6-1 5-.3 1.4-.8 3.6-1 5-.3 1.4-1.2 5.9-2 10s-1.7 8.6-2 10c-.2 1.4-1.4 7-2.5 12.5s-2.2 11.1-2.5 12.5c-.2 1.4-1.3 7-2.5 12.5-1.1 5.5-2.2 11.1-2.5 12.5-.2 1.4-.7 3.6-1 5-.3 1.4-.8 3.6-1 5-.2 1.4-2.2 11.5-4.5 22.5-2.2 11-4.2 21.1-4.5 22.5-.2 1.4-1.8 9.2-3.5 17.5-1.6 8.2-3.2 16.1-3.5 17.5-.2 1.4-1 4.9-1.6 7.8-.7 2.9-1 5.6-.7 5.8.3.3 20.7-14.2 45.3-32.2 24.7-18.1 48.3-35.3 52.5-38.4 4.2-3 18.1-13.2 30.8-22.5 12.8-9.4 24.5-17.9 26.1-19 3.1-2.2 41.4-30.1 51.3-37.5 7.2-5.3 41.1-30.1 54.9-40.1l9.7-7 79.3-.3c79.2-.2 79.3-.2 85.6-2.4 16.7-6 28.3-16.3 35.7-31.6 1.8-3.9 3.7-8.7 4-10.6.3-1.9.8-4.4 1.2-5.5.8-2.5.7-698.6-.1-704.7-2.8-21.8-22.1-43.7-42.6-48.3-.8-.2-1.5-.4-1.5-.5 0-.1-.9-.4-2-.7-2.8-.9-597.5-1.3-597.5-.5 0 .4 31 31.7 68.8 69.5 65.2 65.2 69 68.8 71.3 67.8 6-2.7 15.7-4 26.8-3.7 6.4.1 13 .6 14.6 1 26.6 6.3 47.7 24.1 57.2 48.6 4.1 10.4 5.4 17.5 5.4 29 0 7.9-.2 10.8-1.6 16.7-1.1 5-1.4 5.9-2.3 8.3-.9 2.3-.3 3.3 6.2 10.1 8.3 9 26 28 29.5 31.8 3.1 3.4 23.4 25 29 31 2.4 2.5 7.5 8.1 11.4 12.3 3.8 4.3 7.7 7.8 8.6 7.8.9 0 3.6-.7 6.1-1.6 7.3-2.6 7.9-2.6 21.5-3 11-.2 14.3.1 21.5 2 26.3 6.9 46.2 25.6 54.9 51.3 2.8 8.4 3.2 10.5 3.8 21.8 3 59-58.3 99.9-112.2 74.6-27.6-12.9-44.7-39.5-44.9-69.6-.1-13.2.4-16.3 5-31.5.2-.8-1.6-3.7-4.2-6.5-2.5-2.7-9.7-10.4-15.9-17-6.1-6.6-13.6-14.6-16.6-17.9-8.6-9.4-29.2-31.5-40.5-43.5-3.2-3.4-5.7-5.2-6.6-4.9-1.3.5-1.5 16-1.5 118.7V595l7.2 3.9c23 12.7 38.9 36 41.2 60.6.8 8.9.8 10.6 0 18.6-2.9 28.2-24.8 55.3-52.3 65-32.3 11.2-67.7.6-89.2-26.8-5.1-6.6-11.6-20.1-13.8-28.9-3-12.4-2.6-29.3 1-40.9 5-16.2 13.1-28.4 26-39.3 3.7-3.1 12.3-8.5 16.4-10.3l3.2-1.4V359.1l-6.7-3.5c-19-10-34.3-29.2-39.8-50.1-3.7-13.8-2.6-32.7 2.6-46.8l2.2-5.9-89.8-89.8-89.8-89.8-59.6.1c-32.8 0-61.6.4-64.1.8z"/></svg>