<?xml version="1.0" encoding="UTF-8" standalone="no"?>
<!-- Created with Inkscape (http://www.inkscape.org/) -->

<svg
   xmlns:dc="http://purl.org/dc/elements/1.1/"
   xmlns:cc="http://creativecommons.org/ns#"
   xmlns:rdf="http://www.w3.org/1999/02/22-rdf-syntax-ns#"
   xmlns:svg="http://www.w3.org/2000/svg"
   xmlns="http://www.w3.org/2000/svg"
   xmlns:sodipodi="http://sodipodi.sourceforge.net/DTD/sodipodi-0.dtd"
   xmlns:inkscape="http://www.inkscape.org/namespaces/inkscape"
   width="1305"
   height="1305"
   viewBox="0 0 345.28124 345.28126"
   version="1.1"
   id="svg8"
   inkscape:version="0.92.4 (5da689c313, 2019-01-14)"
   sodipodi:docname="new1.svg">
  <defs
     id="defs2" />
  <sodipodi:namedview
     id="base"
     pagecolor="#ffffff"
     bordercolor="#666666"
     borderopacity="1.0"
     inkscape:pageopacity="0.0"
     inkscape:pageshadow="2"
     inkscape:zoom="0.125"
     inkscape:cx="-1076.1873"
     inkscape:cy="-990.60392"
     inkscape:document-units="mm"
     inkscape:current-layer="layer1"
     showgrid="false"
     inkscape:window-width="1838"
     inkscape:window-height="1016"
     inkscape:window-x="82"
     inkscape:window-y="27"
     inkscape:window-maximized="1"
     inkscape:snap-global="true"
     units="px" />
  <metadata
     id="metadata5">
    <rdf:RDF>
      <cc:Work
         rdf:about="">
        <dc:format>image/svg+xml</dc:format>
        <dc:type
           rdf:resource="http://purl.org/dc/dcmitype/StillImage" />
        <dc:title></dc:title>
      </cc:Work>
    </rdf:RDF>
  </metadata>
  <g
     inkscape:label="Calque 1"
     inkscape:groupmode="layer"
     id="layer1"
     transform="translate(0,48.281267)">
    <g
       id="g944">
      <path
         sodipodi:nodetypes="cccccccccccccccscccccccscccccccccccccscscscscccscccscsccccccccccccccccccccccccsccccccsccccccccccccccccccccccccsccccccccccccccccccsccccccccc"
         inkscape:connector-curvature="0"
         id="path856"
         d="M 172.64063,-45.059124 C 78.911632,-45.059002 2.9293451,30.79221 2.9293916,124.35935 2.9293363,217.9265 78.911626,293.77772 172.64063,293.77784 c 93.729,-1.3e-4 169.71129,-75.85135 169.71123,-169.41849 5e-5,-93.567136 -75.98224,-169.418347 -169.71123,-169.418474 z m 0,21.067347 C 254.714,-23.99127 321.24726,42.427722 321.24699,124.35935 321.24726,206.29098 254.714,272.70997 172.64063,272.71048 90.566643,272.71085 24.032411,206.2916 24.032682,124.35935 24.032413,42.427103 90.566644,-23.992145 172.64063,-23.991777 Z M 97.401342,44.103095 c -0.757544,0 -1.469489,0.08145 -2.134653,0.22956 -0.665162,0.148142 -1.284108,0.363267 -1.856215,0.635681 -1.144229,0.544833 -2.10265,1.314788 -2.870741,2.213649 -0.768091,0.898858 -1.346326,1.926903 -1.733009,2.988981 -0.386666,1.062079 -0.580867,2.158364 -0.580867,3.192846 v 66.316228 l -0.0161,65.38359 c 0,0.88639 0.08742,1.70267 0.246424,2.45283 0.159039,0.75017 0.390658,1.43353 0.680084,2.05472 0.289404,0.6212 0.636141,1.1796 1.027322,1.6791 0.391166,0.49951 0.825452,0.94088 1.289746,1.32593 0.928601,0.77014 1.975094,1.31828 3.024362,1.67429 1.049264,0.356 2.102709,0.51849 3.043554,0.51849 h 38.265321 39.92312 l -0.33764,1.89581 c -0.18579,0.75957 -1.74943,8.51247 -3.47241,17.2308 -1.72289,8.71835 -3.24561,16.34309 -3.3844,16.94184 -0.0713,0.30722 -0.10088,0.52837 -0.0544,0.64692 0.0464,0.11854 0.16849,0.13488 0.40166,0.0353 0.46629,-0.19915 1.37534,-0.86431 3.00195,-2.11253 1.19282,-0.91535 5.93463,-4.40764 10.53564,-7.75819 4.60099,-3.35051 10.31659,-7.53366 12.7023,-9.29762 2.38571,-1.76398 8.56063,-6.31643 13.72163,-10.11631 l 9.3835,-7.29588 h 15.76826 14.01926 c 1.38941,0 2.65077,-0.27059 3.76204,-0.74805 1.11127,-0.47744 2.07255,-1.16298 2.85954,-1.99212 0.78699,-0.82914 1.40125,-1.80224 1.81781,-2.85735 0.41657,-1.05512 0.63528,-2.19161 0.63528,-3.34695 v -66.3178 -66.481584 c 0,-1.322406 -0.19267,-2.547161 -0.58727,-3.639117 -0.3946,-1.091952 -0.99132,-2.051368 -1.79541,-2.846114 -0.80409,-0.794742 -1.81669,-1.424916 -3.04517,-1.855668 -1.22846,-0.430755 -2.67195,-0.661368 -4.3397,-0.661368 h -110.3857 l 12.48147,12.533822 12.36306,12.968846 c 0.91001,-0.374535 1.85277,-0.659937 2.81313,-0.850788 0.96036,-0.190851 1.93833,-0.28716 2.92195,-0.288944 1.04817,-7.3e-5 2.07118,0.105368 3.05956,0.30821 0.98838,0.202842 1.9417,0.502372 2.84994,0.887707 0.90823,0.385334 1.77176,0.85719 2.5795,1.404593 0.80773,0.547412 1.55978,1.16982 2.24666,1.858885 0.68689,0.689065 1.30894,1.445088 1.85462,2.255381 0.54568,0.810301 1.01605,1.674954 1.40017,2.586069 0.38411,0.911098 0.6827,1.86744 0.88491,2.858952 0.2022,0.991512 0.3073,2.019367 0.30724,3.070852 -0.003,0.901079 -0.0867,1.797892 -0.24804,2.680774 -0.16133,0.882875 -0.40041,1.751794 -0.71528,2.595693 l 8.03775,8.503026 7.76091,8.164323 c 0.87465,-0.3403 1.77655,-0.59802 2.69472,-0.77052 0.91817,-0.17249 1.8526,-0.25979 2.79073,-0.26005 1.04818,-8e-5 2.07118,0.10537 3.05957,0.3082 0.98838,0.20284 1.94169,0.50238 2.84993,0.88771 0.90824,0.38534 1.77176,0.85719 2.57951,1.4046 0.80773,0.54741 1.55977,1.16982 2.24666,1.85888 0.68688,0.68907 1.30894,1.44509 1.85462,2.25539 0.54567,0.81029 1.01605,1.67495 1.40016,2.58606 0.38412,0.91111 0.68271,1.86744 0.88491,2.85896 0.2022,0.99151 0.30733,2.01936 0.30724,3.07085 -3e-5,1.0514 -0.10655,2.07781 -0.30882,3.06925 -0.20227,0.99142 -0.50075,1.94793 -0.88491,2.85894 -0.38416,0.91104 -0.85287,1.77586 -1.39856,2.58607 -0.5457,0.81022 -1.16775,1.5648 -1.85462,2.25377 -0.68688,0.68898 -1.43895,1.31315 -2.24667,1.8605 -0.80771,0.54734 -1.67131,1.01771 -2.5795,1.40299 -0.9082,0.38528 -1.86163,0.68491 -2.84994,0.8877 -0.98831,0.20282 -2.01147,0.3099 -3.05956,0.30983 -1.04794,-1.4e-4 -2.07141,-0.10686 -3.05956,-0.30983 -0.98815,-0.20293 -1.94032,-0.50233 -2.84834,-0.8877 -0.90801,-0.38537 -1.77196,-0.85723 -2.5795,-1.4046 -0.80754,-0.54737 -1.55834,-1.17152 -2.24507,-1.86048 -0.68672,-0.68898 -1.30905,-1.44363 -1.85462,-2.25379 -0.54556,-0.81014 -1.0145,-1.67513 -1.39856,-2.58605 -0.38406,-0.91093 -0.68269,-1.86767 -0.88491,-2.85896 -0.20223,-0.9913 -0.30878,-2.01639 -0.30885,-3.06764 0.002,-0.97331 0.0965,-1.94336 0.28164,-2.89428 0.18517,-0.95092 0.46059,-1.88268 0.82409,-2.78511 -0.0186,-0.18296 -0.0665,-0.32412 -0.15043,-0.38686 -0.26878,-0.20099 -2.16202,-2.1867 -4.20689,-4.41445 -4.5306,-4.93567 -7.12524,-7.74337 -8.61861,-9.2848 -1.49338,-1.54141 -1.88544,-1.816545 -2.01304,-1.688717 -0.14801,0.149099 -0.25361,10.013637 -0.22883,21.919747 0.0139,7.30565 0.0605,12.41153 0.15842,15.8599 0.0978,3.44838 0.24682,5.23924 0.46725,5.91375 1.27779,0.64649 2.43824,1.45908 3.45961,2.40467 1.02136,0.94559 1.90429,2.02406 2.62751,3.20088 0.72322,1.17681 1.28723,2.45144 1.6706,3.79161 0.38336,1.34016 0.58546,2.74604 0.58727,4.18169 -3e-5,1.0514 -0.10658,2.07781 -0.30885,3.06923 -0.20227,0.99143 -0.50074,1.94794 -0.8849,2.85896 -0.38416,0.91103 -0.85287,1.77586 -1.39857,2.58606 -0.54569,0.81022 -1.16774,1.56481 -1.85462,2.25378 -0.68687,0.68899 -1.43896,1.31316 -2.24666,1.86049 -0.80771,0.54734 -1.67131,1.01772 -2.5795,1.40299 -0.90819,0.38528 -1.86162,0.6849 -2.84994,0.88771 -0.98832,0.20281 -2.01147,0.30989 -3.05956,0.30983 -1.04802,-4e-5 -2.07133,-0.10696 -3.05957,-0.30983 -0.98823,-0.20288 -1.94183,-0.50238 -2.84993,-0.88771 -0.90811,-0.38531 -1.77028,-0.85724 -2.57791,-1.40459 -0.80762,-0.54736 -1.55986,-1.16991 -2.24666,-1.85889 -0.6868,-0.68897 -1.30898,-1.44359 -1.85462,-2.25378 -0.54563,-0.81018 -1.01446,-1.67668 -1.39856,-2.58765 -0.38412,-0.91099 -0.68267,-1.866 -0.88491,-2.85737 -0.20224,-0.99135 -0.30879,-2.0179 -0.30885,-3.06923 2.9e-4,-1.56576 0.24026,-3.09275 0.68968,-4.53646 0.4494,-1.4437 1.10781,-2.80465 1.94903,-4.04202 0.84123,-1.23739 1.86461,-2.35041 3.04036,-3.29719 1.17575,-0.94679 2.50429,-1.72683 3.95727,-2.29872 l -0.0352,-21.71267 -0.0336,-21.897265 -0.14402,-0.09472 c -1.42435,-0.585703 -2.72541,-1.373682 -3.87565,-2.32119 -1.15024,-0.947516 -2.14993,-2.05488 -2.97155,-3.282752 -0.82162,-1.227854 -1.46412,-2.576714 -1.90262,-4.003499 -0.4385,-1.426785 -0.6728,-2.931188 -0.67368,-4.475446 0.003,-0.925432 0.0903,-1.847107 0.25924,-2.75301 0.16895,-0.905904 0.41967,-1.796027 0.75048,-2.659907 -0.10636,-0.382877 -0.37853,-0.86776 -0.92651,-1.577963 -0.54797,-0.710204 -1.37102,-1.64678 -2.5811,-2.934401 -2.42016,-2.575253 -6.38585,-6.554409 -12.77751,-12.939951 L 120.20728,44.10312 c -8.32262,0.132144 -22.805904,0 -22.805904,0 z"
         style="opacity:1;fill:#e58537;fill-opacity:1;stroke:none;stroke-width:2.86653376;stroke-linejoin:round;stroke-miterlimit:4;stroke-dasharray:none;stroke-dashoffset:0;stroke-opacity:1" />
      <path
         sodipodi:nodetypes="ccscc"
         inkscape:connector-curvature="0"
         id="path856-9"
         d="m 91.984726,108.87651 v 61.28791 c 0,20.30059 0.157073,20.46142 11.382054,20.46142 h 46.49435 C 92.350826,186.62208 96.433938,190.49051 91.984726,108.87651 Z"
         style="opacity:1;fill:#ffffff;fill-opacity:0.3137255;stroke:none;stroke-width:2.06059337;stroke-linejoin:round;stroke-miterlimit:4;stroke-dasharray:none;stroke-dashoffset:0;stroke-opacity:1" />
    </g>
  </g>
</svg>
