<svg id="Text" xmlns="http://www.w3.org/2000/svg" viewBox="0 0 583.07 255.85"><defs><style>.cls-1{fill:#999;}.cls-2{fill:#fff;}.cls-3{fill:#e48436;}</style></defs><title>gp-logo-plus-strapline</title><path class="cls-1" d="M49.69,192.13q.26.65.5,1.31.24-.69.51-1.31t.61-1.26L63.2,169.28a1.4,1.4,0,0,1,.66-.69,3,3,0,0,1,1-.12h3.5v35.11H64.18v-25.8c0-.34,0-.71,0-1.1s0-.79.07-1.2l-12,22a1.89,1.89,0,0,1-1.71,1.1h-.69a1.89,1.89,0,0,1-1.71-1.1l-12.3-22q.07.64.11,1.25c0,.41,0,.78,0,1.13v25.8H31.82V168.47h3.5a3,3,0,0,1,1,.12,1.41,1.41,0,0,1,.66.69l12.13,21.61A9.16,9.16,0,0,1,49.69,192.13Z" transform="translate(0 -14.93)"/><path class="cls-1" d="M93.21,203.58H91.28a2.31,2.31,0,0,1-1-.2,1.08,1.08,0,0,1-.51-.83l-.49-2.3q-1,.88-1.91,1.58a10.91,10.91,0,0,1-2,1.18,10.1,10.1,0,0,1-2.19.72,12.6,12.6,0,0,1-2.58.24,8.79,8.79,0,0,1-2.71-.41,6.14,6.14,0,0,1-2.19-1.22,5.8,5.8,0,0,1-1.48-2.05,7.2,7.2,0,0,1-.55-2.94,5.5,5.5,0,0,1,.81-2.84,7.12,7.12,0,0,1,2.61-2.42,17,17,0,0,1,4.72-1.73,32.12,32.12,0,0,1,7.13-.68v-1.95a6.75,6.75,0,0,0-1.24-4.4A4.48,4.48,0,0,0,84,181.85a7.76,7.76,0,0,0-2.68.4,10.2,10.2,0,0,0-1.89.91q-.8.5-1.37.91a2,2,0,0,1-1.14.4,1.31,1.31,0,0,1-.77-.23,1.76,1.76,0,0,1-.53-.58l-.78-1.4a14.18,14.18,0,0,1,4.43-3,13.69,13.69,0,0,1,5.27-1,9.41,9.41,0,0,1,3.7.69A7.59,7.59,0,0,1,91,180.92a8.11,8.11,0,0,1,1.67,3,12.35,12.35,0,0,1,.56,3.82Zm-11.32-2.67a8.9,8.9,0,0,0,2.11-.23,8.3,8.3,0,0,0,1.8-.66,9.52,9.52,0,0,0,1.62-1,13.83,13.83,0,0,0,1.51-1.4v-5.12a29.32,29.32,0,0,0-5.12.38,14.34,14.34,0,0,0-3.43,1,4.78,4.78,0,0,0-1.92,1.45,3.14,3.14,0,0,0-.6,1.87,4.14,4.14,0,0,0,.32,1.7A3.22,3.22,0,0,0,79,200a3.38,3.38,0,0,0,1.27.67A5.79,5.79,0,0,0,81.89,200.91Z" transform="translate(0 -14.93)"/><path class="cls-1" d="M99.34,203.58V178.76h2.5a1.38,1.38,0,0,1,1,.27,1.65,1.65,0,0,1,.37.93l.29,3.87a11.36,11.36,0,0,1,3.15-4.05,7.42,7.42,0,0,1,6.26-1.22,6.51,6.51,0,0,1,1.54.65l-.56,3.26a.74.74,0,0,1-.76.61,3.8,3.8,0,0,1-1.05-.23,6.64,6.64,0,0,0-2-.23,5.63,5.63,0,0,0-3.81,1.32,9.94,9.94,0,0,0-2.56,3.85v15.8Z" transform="translate(0 -14.93)"/><path class="cls-1" d="M123.13,167.49v21.24h1.13a2.09,2.09,0,0,0,.81-.13,2.26,2.26,0,0,0,.71-.55l7.84-8.4a4.21,4.21,0,0,1,.73-.64,1.74,1.74,0,0,1,1-.25h4l-9.14,9.73a8.7,8.7,0,0,1-.67.74,4,4,0,0,1-.75.56,4.54,4.54,0,0,1,.8.67,6.36,6.36,0,0,1,.67.87l9.7,12.25H136a1.89,1.89,0,0,1-.92-.21,2.4,2.4,0,0,1-.72-.65l-8.16-10.17a1.91,1.91,0,0,0-.73-.67,2.92,2.92,0,0,0-1.1-.16h-1.23v11.86h-4.39V167.49Z" transform="translate(0 -14.93)"/><path class="cls-1" d="M159.78,203.58a1.11,1.11,0,0,1-1.18-.91l-.39-3a13.09,13.09,0,0,1-3.64,3.1,9.33,9.33,0,0,1-4.69,1.16,9,9,0,0,1-3.87-.82,8,8,0,0,1-3-2.41,11.5,11.5,0,0,1-1.89-4,20.43,20.43,0,0,1-.66-5.46,17.12,17.12,0,0,1,.73-5.11,12.45,12.45,0,0,1,2.12-4.1,9.72,9.72,0,0,1,7.88-3.72,9,9,0,0,1,3.9.77,9.32,9.32,0,0,1,2.89,2.17V167.49h4.36v36.09Zm-8.45-3.18a7,7,0,0,0,3.74-1,10.78,10.78,0,0,0,3-2.77v-12a6.89,6.89,0,0,0-2.63-2.27,7.59,7.59,0,0,0-3.17-.65,6.29,6.29,0,0,0-5.34,2.47q-1.86,2.48-1.86,7.06a17.93,17.93,0,0,0,.42,4.15,8,8,0,0,0,1.23,2.84,4.81,4.81,0,0,0,2,1.63A6.67,6.67,0,0,0,151.33,200.4Z" transform="translate(0 -14.93)"/><path class="cls-1" d="M179.26,178.37a12.74,12.74,0,0,1,4.91.91,10.36,10.36,0,0,1,3.72,2.57,11.4,11.4,0,0,1,2.35,4,17.43,17.43,0,0,1,0,10.57,11.41,11.41,0,0,1-2.35,4,10.24,10.24,0,0,1-3.72,2.56,13.95,13.95,0,0,1-9.82,0,10.35,10.35,0,0,1-3.74-2.56,11.44,11.44,0,0,1-2.38-4,17.19,17.19,0,0,1,0-10.57,11.43,11.43,0,0,1,2.38-4,10.46,10.46,0,0,1,3.74-2.57A12.74,12.74,0,0,1,179.26,178.37Zm0,22.15a6.37,6.37,0,0,0,5.49-2.46,14,14,0,0,0,0-13.78,6.36,6.36,0,0,0-5.49-2.47,7.63,7.63,0,0,0-3.23.64,6.05,6.05,0,0,0-2.29,1.84,8.17,8.17,0,0,0-1.37,3,17.45,17.45,0,0,0,0,7.9,8,8,0,0,0,1.37,2.93,6.1,6.1,0,0,0,2.29,1.83A7.61,7.61,0,0,0,179.26,200.52Z" transform="translate(0 -14.93)"/><path class="cls-1" d="M192.73,178.76h3.43a1.38,1.38,0,0,1,.88.27,1.35,1.35,0,0,1,.47.64l4.75,16q.2.88.37,1.7t.29,1.65q.2-.83.44-1.65l.51-1.7,5.24-16.07a1.29,1.29,0,0,1,.43-.61,1.19,1.19,0,0,1,.77-.25h1.89a1.28,1.28,0,0,1,.81.25,1.26,1.26,0,0,1,.44.61l5.12,16.07q.27.86.48,1.69l.4,1.64q.12-.81.32-1.69t.42-1.64l4.85-16a1.27,1.27,0,0,1,.47-.65,1.31,1.31,0,0,1,.81-.26h3.28l-8,24.82h-3.45q-.64,0-.88-.83l-5.49-16.83a9.35,9.35,0,0,1-.32-1.14l-.25-1.14-.25,1.15a9.35,9.35,0,0,1-.32,1.15l-5.56,16.81a1,1,0,0,1-1,.83h-3.28Z" transform="translate(0 -14.93)"/><path class="cls-1" d="M233,203.58V178.76h2.6a1.11,1.11,0,0,1,1.18.91l.34,2.7a14,14,0,0,1,3.61-2.89,9.4,9.4,0,0,1,4.62-1.1,9,9,0,0,1,3.59.67,7,7,0,0,1,2.6,1.91,8.45,8.45,0,0,1,1.58,3,13,13,0,0,1,.54,3.85v15.8H249.3v-15.8A6.68,6.68,0,0,0,248,183.4a4.81,4.81,0,0,0-3.93-1.56,7.33,7.33,0,0,0-3.61.93,11.87,11.87,0,0,0-3.1,2.52v18.28Z" transform="translate(0 -14.93)"/><path class="cls-1" d="M274.63,190.45v13.13h-4.73V168.47h10.36a19.48,19.48,0,0,1,5.79.77,11.14,11.14,0,0,1,4.08,2.19,8.84,8.84,0,0,1,2.41,3.43,12.09,12.09,0,0,1,.8,4.48,11.42,11.42,0,0,1-.86,4.48,9.65,9.65,0,0,1-2.51,3.5,11.67,11.67,0,0,1-4.1,2.29,17.62,17.62,0,0,1-5.61.82Zm0-3.77h5.64a11,11,0,0,0,3.59-.54,7.37,7.37,0,0,0,2.61-1.51,6.27,6.27,0,0,0,1.59-2.32,7.91,7.91,0,0,0,.54-3,6.74,6.74,0,0,0-2.07-5.24q-2.07-1.89-6.26-1.89h-5.64Z" transform="translate(0 -14.93)"/><path class="cls-1" d="M298.18,203.58V178.76h2.5a1.38,1.38,0,0,1,1,.27,1.65,1.65,0,0,1,.37.93l.29,3.87a11.38,11.38,0,0,1,3.15-4.05,7.42,7.42,0,0,1,6.26-1.22,6.5,6.5,0,0,1,1.54.65l-.56,3.26a.74.74,0,0,1-.76.61,3.81,3.81,0,0,1-1.05-.23,6.64,6.64,0,0,0-2-.23,5.63,5.63,0,0,0-3.81,1.32,9.94,9.94,0,0,0-2.56,3.85v15.8Z" transform="translate(0 -14.93)"/><path class="cls-1" d="M327.26,178.37a11.08,11.08,0,0,1,4.12.75,9.27,9.27,0,0,1,3.26,2.16,9.83,9.83,0,0,1,2.14,3.48,13.46,13.46,0,0,1,.77,4.72,2.84,2.84,0,0,1-.22,1.37.91.91,0,0,1-.83.34H320a13.7,13.7,0,0,0,.64,4.09,8.34,8.34,0,0,0,1.62,2.9,6.45,6.45,0,0,0,2.45,1.74,8.39,8.39,0,0,0,3.18.58,9.33,9.33,0,0,0,2.83-.38,13.48,13.48,0,0,0,2-.82,15.44,15.44,0,0,0,1.43-.82,1.9,1.9,0,0,1,1-.38,1,1,0,0,1,.83.42l1.23,1.59a8.28,8.28,0,0,1-1.94,1.7,12,12,0,0,1-2.41,1.19,15.33,15.33,0,0,1-2.66.7,16.24,16.24,0,0,1-2.72.23,12.64,12.64,0,0,1-4.74-.87A10.41,10.41,0,0,1,319,200.5a11.69,11.69,0,0,1-2.46-4.15,16.89,16.89,0,0,1-.88-5.68,14.45,14.45,0,0,1,.8-4.85,11.45,11.45,0,0,1,2.29-3.91,10.56,10.56,0,0,1,3.65-2.6A12,12,0,0,1,327.26,178.37Zm.1,3.21a6.7,6.7,0,0,0-5,1.83,8.59,8.59,0,0,0-2.25,5.06h13.5a8.85,8.85,0,0,0-.42-2.78A6.18,6.18,0,0,0,332,183.5a5.49,5.49,0,0,0-2-1.42A6.67,6.67,0,0,0,327.36,181.58Z" transform="translate(0 -14.93)"/><path class="cls-1" d="M356.83,182.85a1,1,0,0,1-.91.54,1.69,1.69,0,0,1-.83-.27q-.47-.27-1.14-.6a10.77,10.77,0,0,0-1.6-.61,7.67,7.67,0,0,0-2.21-.28,6.51,6.51,0,0,0-2,.28,4.78,4.78,0,0,0-1.51.77,3.41,3.41,0,0,0-1,1.14,3.05,3.05,0,0,0-.33,1.41,2.35,2.35,0,0,0,.55,1.59,4.8,4.8,0,0,0,1.46,1.1,12.62,12.62,0,0,0,2.06.82l2.36.76q1.21.4,2.36.89a8.56,8.56,0,0,1,2.06,1.22,5.61,5.61,0,0,1,1.46,1.8,5.52,5.52,0,0,1,.55,2.56,8.11,8.11,0,0,1-.61,3.17,6.92,6.92,0,0,1-1.81,2.52,8.75,8.75,0,0,1-2.94,1.68,12.09,12.09,0,0,1-4,.61,12.53,12.53,0,0,1-4.7-.84,11.91,11.91,0,0,1-3.58-2.17l1-1.67a1.49,1.49,0,0,1,.47-.49,1.31,1.31,0,0,1,.71-.17,1.64,1.64,0,0,1,.93.34q.49.34,1.19.76a9.05,9.05,0,0,0,1.69.76,7.71,7.71,0,0,0,2.49.34,6.81,6.81,0,0,0,2.23-.33,4.66,4.66,0,0,0,1.59-.89,3.54,3.54,0,0,0,.94-1.3,4,4,0,0,0,.31-1.57,2.6,2.6,0,0,0-.55-1.7,4.64,4.64,0,0,0-1.46-1.15,11.87,11.87,0,0,0-2.07-.83l-2.38-.75q-1.21-.39-2.38-.89a8.38,8.38,0,0,1-2.07-1.26,5.7,5.7,0,0,1-1.46-1.87,6.06,6.06,0,0,1-.55-2.71,6.61,6.61,0,0,1,.59-2.73,6.71,6.71,0,0,1,1.71-2.3,8.43,8.43,0,0,1,2.77-1.58,11.07,11.07,0,0,1,3.75-.59,11.85,11.85,0,0,1,4.4.77,10.4,10.4,0,0,1,3.37,2.12Z" transform="translate(0 -14.93)"/><path class="cls-1" d="M373.22,178.37a11.08,11.08,0,0,1,4.12.75,9.27,9.27,0,0,1,3.26,2.16,9.83,9.83,0,0,1,2.14,3.48,13.46,13.46,0,0,1,.77,4.72,2.84,2.84,0,0,1-.22,1.37.91.91,0,0,1-.83.34H365.94a13.7,13.7,0,0,0,.64,4.09,8.34,8.34,0,0,0,1.62,2.9,6.45,6.45,0,0,0,2.45,1.74,8.39,8.39,0,0,0,3.18.58,9.33,9.33,0,0,0,2.83-.38,13.48,13.48,0,0,0,2-.82,15.44,15.44,0,0,0,1.43-.82,1.9,1.9,0,0,1,1-.38,1,1,0,0,1,.83.42l1.23,1.59a8.28,8.28,0,0,1-1.94,1.7,12,12,0,0,1-2.41,1.19,15.33,15.33,0,0,1-2.66.7,16.24,16.24,0,0,1-2.72.23,12.64,12.64,0,0,1-4.74-.87A10.41,10.41,0,0,1,365,200.5a11.69,11.69,0,0,1-2.46-4.15,16.89,16.89,0,0,1-.88-5.68,14.45,14.45,0,0,1,.8-4.85,11.45,11.45,0,0,1,2.29-3.91,10.56,10.56,0,0,1,3.65-2.6A12,12,0,0,1,373.22,178.37Zm.1,3.21a6.7,6.7,0,0,0-5,1.83,8.59,8.59,0,0,0-2.25,5.06h13.5a8.85,8.85,0,0,0-.42-2.78,6.18,6.18,0,0,0-1.22-2.18,5.49,5.49,0,0,0-2-1.42A6.67,6.67,0,0,0,373.32,181.58Z" transform="translate(0 -14.93)"/><path class="cls-1" d="M388.58,203.58V178.76h2.6a1.11,1.11,0,0,1,1.18.91l.34,2.7a14,14,0,0,1,3.61-2.89,9.41,9.41,0,0,1,4.62-1.1,9,9,0,0,1,3.59.67,7,7,0,0,1,2.6,1.91,8.44,8.44,0,0,1,1.58,3,13,13,0,0,1,.54,3.85v15.8h-4.36v-15.8a6.68,6.68,0,0,0-1.29-4.37,4.81,4.81,0,0,0-3.93-1.56,7.33,7.33,0,0,0-3.61.93,11.88,11.88,0,0,0-3.1,2.52v18.28Z" transform="translate(0 -14.93)"/><path class="cls-1" d="M422.86,204a6,6,0,0,1-4.52-1.64,6.55,6.55,0,0,1-1.58-4.73V182.41h-3a1,1,0,0,1-.66-.23.9.9,0,0,1-.27-.72v-1.74l4.07-.52,1-7.67a.93.93,0,0,1,.32-.6,1,1,0,0,1,.69-.23h2.21v8.55h7.11v3.16h-7.11v14.9a3.17,3.17,0,0,0,.76,2.33,2.65,2.65,0,0,0,2,.76,3.45,3.45,0,0,0,1.19-.18,5,5,0,0,0,.87-.4c.24-.15.45-.28.62-.4a.82.82,0,0,1,.45-.18.75.75,0,0,1,.61.42l1.27,2.08a8.12,8.12,0,0,1-2.72,1.65A9.25,9.25,0,0,1,422.86,204Z" transform="translate(0 -14.93)"/><path class="cls-1" d="M451.35,203.58h-1.94a2.31,2.31,0,0,1-1-.2,1.08,1.08,0,0,1-.51-.83l-.49-2.3q-1,.88-1.91,1.58a10.94,10.94,0,0,1-2,1.18,10.11,10.11,0,0,1-2.19.72,12.6,12.6,0,0,1-2.58.24,8.79,8.79,0,0,1-2.71-.41,6.15,6.15,0,0,1-2.19-1.22,5.8,5.8,0,0,1-1.48-2.05,7.2,7.2,0,0,1-.55-2.94,5.5,5.5,0,0,1,.81-2.84,7.12,7.12,0,0,1,2.61-2.42,17,17,0,0,1,4.72-1.73,32.13,32.13,0,0,1,7.13-.68v-1.95a6.75,6.75,0,0,0-1.24-4.4,4.48,4.48,0,0,0-3.66-1.49,7.76,7.76,0,0,0-2.68.4,10.2,10.2,0,0,0-1.89.91q-.8.5-1.37.91a2,2,0,0,1-1.14.4,1.31,1.31,0,0,1-.77-.23,1.77,1.77,0,0,1-.53-.58l-.78-1.4a14.19,14.19,0,0,1,4.43-3,13.69,13.69,0,0,1,5.27-1,9.41,9.41,0,0,1,3.7.69,7.59,7.59,0,0,1,2.72,1.91,8.1,8.1,0,0,1,1.67,3,12.34,12.34,0,0,1,.56,3.82ZM440,200.91a8.9,8.9,0,0,0,2.11-.23,8.31,8.31,0,0,0,1.8-.66,9.52,9.52,0,0,0,1.62-1,13.83,13.83,0,0,0,1.51-1.4v-5.12a29.33,29.33,0,0,0-5.12.38,14.34,14.34,0,0,0-3.43,1,4.78,4.78,0,0,0-1.92,1.45,3.14,3.14,0,0,0-.6,1.87,4.14,4.14,0,0,0,.32,1.7,3.22,3.22,0,0,0,.86,1.17,3.38,3.38,0,0,0,1.27.67A5.78,5.78,0,0,0,440,200.91Z" transform="translate(0 -14.93)"/><path class="cls-1" d="M465,204a6,6,0,0,1-4.52-1.64,6.55,6.55,0,0,1-1.58-4.73V182.41h-3a1,1,0,0,1-.66-.23.9.9,0,0,1-.27-.72v-1.74l4.07-.52,1-7.67a.93.93,0,0,1,.32-.6,1,1,0,0,1,.69-.23h2.21v8.55h7.11v3.16h-7.11v14.9a3.17,3.17,0,0,0,.76,2.33,2.65,2.65,0,0,0,2,.76,3.45,3.45,0,0,0,1.19-.18,5,5,0,0,0,.87-.4c.24-.15.45-.28.62-.4a.82.82,0,0,1,.45-.18.75.75,0,0,1,.61.42l1.27,2.08a8.12,8.12,0,0,1-2.72,1.65A9.25,9.25,0,0,1,465,204Z" transform="translate(0 -14.93)"/><path class="cls-1" d="M481.09,171a2.77,2.77,0,0,1-.26,1.19,3.43,3.43,0,0,1-.69,1,3.19,3.19,0,0,1-1,.67,3,3,0,0,1-1.2.25,2.89,2.89,0,0,1-1.19-.25,3.27,3.27,0,0,1-1.65-1.65,2.9,2.9,0,0,1-.25-1.19,3.07,3.07,0,0,1,.25-1.21,3.15,3.15,0,0,1,.67-1,3.24,3.24,0,0,1,1-.67,2.91,2.91,0,0,1,1.19-.24,3,3,0,0,1,1.2.24,3.22,3.22,0,0,1,1,.67,3.33,3.33,0,0,1,.69,1A2.93,2.93,0,0,1,481.09,171Zm-1,7.79v24.82h-4.36V178.76Z" transform="translate(0 -14.93)"/><path class="cls-1" d="M497.36,178.37a12.75,12.75,0,0,1,4.91.91,10.35,10.35,0,0,1,3.72,2.57,11.41,11.41,0,0,1,2.35,4,17.44,17.44,0,0,1,0,10.57,11.42,11.42,0,0,1-2.35,4,10.24,10.24,0,0,1-3.72,2.56,13.95,13.95,0,0,1-9.82,0,10.34,10.34,0,0,1-3.74-2.56,11.44,11.44,0,0,1-2.38-4,17.19,17.19,0,0,1,0-10.57,11.43,11.43,0,0,1,2.38-4,10.45,10.45,0,0,1,3.74-2.57A12.74,12.74,0,0,1,497.36,178.37Zm0,22.15a6.37,6.37,0,0,0,5.49-2.46,14,14,0,0,0,0-13.78,6.36,6.36,0,0,0-5.49-2.47,7.63,7.63,0,0,0-3.23.64,6.06,6.06,0,0,0-2.29,1.84,8.18,8.18,0,0,0-1.37,3,17.45,17.45,0,0,0,0,7.9,8.05,8.05,0,0,0,1.37,2.93,6.11,6.11,0,0,0,2.29,1.83A7.61,7.61,0,0,0,497.36,200.52Z" transform="translate(0 -14.93)"/><path class="cls-1" d="M514.07,203.58V178.76h2.6a1.11,1.11,0,0,1,1.18.91l.34,2.7a14,14,0,0,1,3.61-2.89,9.4,9.4,0,0,1,4.62-1.1A9,9,0,0,1,530,179a7,7,0,0,1,2.6,1.91,8.46,8.46,0,0,1,1.58,3,13,13,0,0,1,.54,3.85v15.8h-4.36v-15.8a6.68,6.68,0,0,0-1.29-4.37,4.81,4.81,0,0,0-3.93-1.56,7.32,7.32,0,0,0-3.61.93,11.87,11.87,0,0,0-3.1,2.52v18.28Z" transform="translate(0 -14.93)"/><path class="cls-1" d="M555,182.85a1,1,0,0,1-.91.54,1.69,1.69,0,0,1-.83-.27q-.47-.27-1.14-.6a10.77,10.77,0,0,0-1.6-.61,7.67,7.67,0,0,0-2.21-.28,6.51,6.51,0,0,0-2,.28,4.78,4.78,0,0,0-1.51.77,3.41,3.41,0,0,0-1,1.14,3.05,3.05,0,0,0-.33,1.41,2.35,2.35,0,0,0,.55,1.59,4.8,4.8,0,0,0,1.46,1.1,12.62,12.62,0,0,0,2.06.82l2.36.76q1.21.4,2.36.89a8.56,8.56,0,0,1,2.06,1.22,5.61,5.61,0,0,1,1.46,1.8,5.52,5.52,0,0,1,.55,2.56,8.11,8.11,0,0,1-.61,3.17,6.92,6.92,0,0,1-1.81,2.52,8.75,8.75,0,0,1-2.94,1.68,12.09,12.09,0,0,1-4,.61,12.53,12.53,0,0,1-4.7-.84,11.91,11.91,0,0,1-3.58-2.17l1-1.67a1.49,1.49,0,0,1,.47-.49,1.31,1.31,0,0,1,.71-.17,1.64,1.64,0,0,1,.93.34q.49.34,1.19.76a9.05,9.05,0,0,0,1.69.76,7.71,7.71,0,0,0,2.49.34,6.81,6.81,0,0,0,2.23-.33,4.66,4.66,0,0,0,1.59-.89,3.54,3.54,0,0,0,.94-1.3,4,4,0,0,0,.31-1.57,2.6,2.6,0,0,0-.55-1.7,4.64,4.64,0,0,0-1.46-1.15,11.87,11.87,0,0,0-2.07-.83l-2.38-.75q-1.21-.39-2.38-.89a8.38,8.38,0,0,1-2.07-1.26,5.7,5.7,0,0,1-1.46-1.87,6.06,6.06,0,0,1-.55-2.71,6.61,6.61,0,0,1,.59-2.73,6.71,6.71,0,0,1,1.71-2.3A8.43,8.43,0,0,1,544.5,179a11.07,11.07,0,0,1,3.75-.59,11.85,11.85,0,0,1,4.4.77,10.4,10.4,0,0,1,3.37,2.12Z" transform="translate(0 -14.93)"/><path class="cls-1" d="M162.69,262.38V241.29l-2.74-.32a2.17,2.17,0,0,1-.85-.38.89.89,0,0,1-.33-.75v-1.79h3.92v-2.4a11.05,11.05,0,0,1,.6-3.79,7.67,7.67,0,0,1,1.71-2.79,7.27,7.27,0,0,1,2.68-1.73,10,10,0,0,1,3.53-.59,9.4,9.4,0,0,1,3.09.49l-.1,2.18a.56.56,0,0,1-.42.59,4.79,4.79,0,0,1-1.1.1h-.76a6.68,6.68,0,0,0-2,.29,3.87,3.87,0,0,0-1.58,1,4.32,4.32,0,0,0-1,1.74,8.61,8.61,0,0,0-.36,2.67v2.28h7.18v3.16h-7v21.17Z" transform="translate(0 -14.93)"/><path class="cls-1" d="M187.78,237.17a12.74,12.74,0,0,1,4.91.91,10.37,10.37,0,0,1,3.72,2.57,11.4,11.4,0,0,1,2.35,4,17.43,17.43,0,0,1,0,10.57,11.41,11.41,0,0,1-2.35,4,10.24,10.24,0,0,1-3.72,2.56,13.95,13.95,0,0,1-9.82,0,10.35,10.35,0,0,1-3.74-2.56,11.44,11.44,0,0,1-2.38-4,17.19,17.19,0,0,1,0-10.57,11.43,11.43,0,0,1,2.38-4,10.48,10.48,0,0,1,3.74-2.57A12.74,12.74,0,0,1,187.78,237.17Zm0,22.15a6.37,6.37,0,0,0,5.49-2.46,14,14,0,0,0,0-13.78,6.36,6.36,0,0,0-5.49-2.47,7.61,7.61,0,0,0-3.23.64,6.05,6.05,0,0,0-2.29,1.84,8.16,8.16,0,0,0-1.37,3,17.45,17.45,0,0,0,0,7.9,8,8,0,0,0,1.37,2.93,6.1,6.1,0,0,0,2.29,1.83A7.61,7.61,0,0,0,187.78,259.32Z" transform="translate(0 -14.93)"/><path class="cls-1" d="M204.49,262.38V237.56H207a1.38,1.38,0,0,1,1,.27,1.66,1.66,0,0,1,.37.93l.29,3.87a11.35,11.35,0,0,1,3.15-4.05,7.41,7.41,0,0,1,6.26-1.22,6.51,6.51,0,0,1,1.54.65l-.56,3.26a.74.74,0,0,1-.76.61,3.8,3.8,0,0,1-1.05-.23,6.64,6.64,0,0,0-2-.23,5.62,5.62,0,0,0-3.81,1.32,9.94,9.94,0,0,0-2.56,3.85v15.8Z" transform="translate(0 -14.93)"/><path class="cls-1" d="M255,227.27v3.87H238.18V242.8h13.65v3.72H238.18v12H255v3.87H233.4V227.27Z" transform="translate(0 -14.93)"/><path class="cls-1" d="M256.82,237.56h3.58a1.35,1.35,0,0,1,.86.27,1.53,1.53,0,0,1,.49.64l6.3,16a12.2,12.2,0,0,1,.54,1.76q.2.88.37,1.74.2-.86.42-1.74a14.71,14.71,0,0,1,.56-1.76l6.37-16a1.46,1.46,0,0,1,.48-.65,1.3,1.3,0,0,1,.82-.26H281l-10.12,24.82h-3.94Z" transform="translate(0 -14.93)"/><path class="cls-1" d="M293.74,237.17a11.08,11.08,0,0,1,4.12.75,9.25,9.25,0,0,1,3.26,2.16,9.83,9.83,0,0,1,2.14,3.48,13.46,13.46,0,0,1,.77,4.72,2.84,2.84,0,0,1-.22,1.37.91.91,0,0,1-.83.34H286.47a13.7,13.7,0,0,0,.64,4.09,8.35,8.35,0,0,0,1.62,2.9,6.46,6.46,0,0,0,2.45,1.74,8.39,8.39,0,0,0,3.18.58,9.33,9.33,0,0,0,2.83-.38,13.48,13.48,0,0,0,2-.82,15.44,15.44,0,0,0,1.43-.82,1.9,1.9,0,0,1,1-.38,1,1,0,0,1,.83.42l1.23,1.59a8.28,8.28,0,0,1-1.94,1.7,12,12,0,0,1-2.41,1.19,15.33,15.33,0,0,1-2.66.7,16.24,16.24,0,0,1-2.72.23,12.63,12.63,0,0,1-4.74-.87,10.41,10.41,0,0,1-3.75-2.55,11.68,11.68,0,0,1-2.46-4.15,16.89,16.89,0,0,1-.88-5.68,14.45,14.45,0,0,1,.8-4.85,11.43,11.43,0,0,1,2.29-3.91,10.55,10.55,0,0,1,3.65-2.6A12,12,0,0,1,293.74,237.17Zm.1,3.21a6.69,6.69,0,0,0-5,1.83,8.59,8.59,0,0,0-2.25,5.06h13.5a8.85,8.85,0,0,0-.42-2.78,6.2,6.2,0,0,0-1.22-2.18,5.49,5.49,0,0,0-2-1.42A6.67,6.67,0,0,0,293.84,240.38Z" transform="translate(0 -14.93)"/><path class="cls-1" d="M309.1,262.38V237.56h2.5a1.38,1.38,0,0,1,1,.27,1.65,1.65,0,0,1,.37.93l.29,3.87a11.36,11.36,0,0,1,3.15-4.05,7.41,7.41,0,0,1,6.26-1.22,6.5,6.5,0,0,1,1.54.65l-.56,3.26a.74.74,0,0,1-.76.61,3.81,3.81,0,0,1-1.05-.23,6.64,6.64,0,0,0-2-.23,5.62,5.62,0,0,0-3.81,1.32,9.94,9.94,0,0,0-2.56,3.85v15.8Z" transform="translate(0 -14.93)"/><path class="cls-1" d="M335.64,269.71a2.29,2.29,0,0,1-.55.78,1.5,1.5,0,0,1-1,.29h-3.23l4.53-9.85-10.24-23.37h3.77a1.29,1.29,0,0,1,.88.28,1.77,1.77,0,0,1,.46.63l6.64,15.63a11.27,11.27,0,0,1,.38,1.08q.16.54.28,1.1c.11-.38.23-.74.34-1.1s.25-.73.39-1.1l6.44-15.61a1.4,1.4,0,0,1,.5-.65,1.29,1.29,0,0,1,.77-.26h3.48Z" transform="translate(0 -14.93)"/><path class="cls-1" d="M362.37,237.17a12.74,12.74,0,0,1,4.91.91,10.37,10.37,0,0,1,3.72,2.57,11.39,11.39,0,0,1,2.35,4,17.42,17.42,0,0,1,0,10.57,11.4,11.4,0,0,1-2.35,4,10.25,10.25,0,0,1-3.72,2.56,13.95,13.95,0,0,1-9.82,0,10.36,10.36,0,0,1-3.74-2.56,11.44,11.44,0,0,1-2.38-4,17.19,17.19,0,0,1,0-10.57,11.43,11.43,0,0,1,2.38-4,10.48,10.48,0,0,1,3.74-2.57A12.75,12.75,0,0,1,362.37,237.17Zm0,22.15a6.37,6.37,0,0,0,5.49-2.46,14,14,0,0,0,0-13.78,6.36,6.36,0,0,0-5.49-2.47,7.61,7.61,0,0,0-3.23.64,6,6,0,0,0-2.29,1.84,8.15,8.15,0,0,0-1.37,3,17.45,17.45,0,0,0,0,7.9,8,8,0,0,0,1.37,2.93,6.1,6.1,0,0,0,2.29,1.83A7.61,7.61,0,0,0,362.37,259.32Z" transform="translate(0 -14.93)"/><path class="cls-1" d="M379.08,262.38V237.56h2.6a1.11,1.11,0,0,1,1.18.91l.34,2.7a14,14,0,0,1,3.61-2.89,9.41,9.41,0,0,1,4.62-1.1,9,9,0,0,1,3.59.67,7,7,0,0,1,2.6,1.91,8.44,8.44,0,0,1,1.58,3,13,13,0,0,1,.54,3.85v15.8h-4.36v-15.8a6.68,6.68,0,0,0-1.29-4.37,4.81,4.81,0,0,0-3.93-1.56,7.34,7.34,0,0,0-3.61.93,11.92,11.92,0,0,0-3.1,2.52v18.28Z" transform="translate(0 -14.93)"/><path class="cls-1" d="M415.65,237.17a11.08,11.08,0,0,1,4.12.75,9.25,9.25,0,0,1,3.26,2.16,9.83,9.83,0,0,1,2.14,3.48,13.46,13.46,0,0,1,.77,4.72,2.84,2.84,0,0,1-.22,1.37.91.91,0,0,1-.83.34H408.38a13.7,13.7,0,0,0,.64,4.09,8.34,8.34,0,0,0,1.62,2.9,6.45,6.45,0,0,0,2.45,1.74,8.39,8.39,0,0,0,3.18.58,9.33,9.33,0,0,0,2.83-.38,13.48,13.48,0,0,0,2-.82,15.44,15.44,0,0,0,1.43-.82,1.9,1.9,0,0,1,1-.38,1,1,0,0,1,.83.42l1.23,1.59a8.28,8.28,0,0,1-1.94,1.7,12,12,0,0,1-2.41,1.19,15.33,15.33,0,0,1-2.66.7,16.24,16.24,0,0,1-2.72.23,12.64,12.64,0,0,1-4.74-.87,10.41,10.41,0,0,1-3.75-2.55,11.69,11.69,0,0,1-2.46-4.15,16.89,16.89,0,0,1-.88-5.68,14.45,14.45,0,0,1,.8-4.85,11.43,11.43,0,0,1,2.29-3.91,10.55,10.55,0,0,1,3.65-2.6A12,12,0,0,1,415.65,237.17Zm.1,3.21a6.7,6.7,0,0,0-5,1.83,8.59,8.59,0,0,0-2.25,5.06H422a8.85,8.85,0,0,0-.42-2.78,6.2,6.2,0,0,0-1.22-2.18,5.49,5.49,0,0,0-2-1.42A6.67,6.67,0,0,0,415.75,240.38Z" transform="translate(0 -14.93)"/><path class="cls-2" d="M173.7,96.07a39.47,39.47,0,0,0,18.08-3.91V75.6h-11.4a3.56,3.56,0,0,1-2.58-.91,3,3,0,0,1-.94-2.24V62.87h30.3V99.73a50,50,0,0,1-7.21,4.38,46,46,0,0,1-8,3.06,61.37,61.37,0,0,1-9.1,1.8,85.74,85.74,0,0,1-10.46.6A47.5,47.5,0,0,1,154,106.09a43,43,0,0,1-24-24.38A49.83,49.83,0,0,1,126.58,63a51.45,51.45,0,0,1,3.34-18.84A41.48,41.48,0,0,1,154.3,19.84,53.9,53.9,0,0,1,174,16.44a51.25,51.25,0,0,1,19.31,3.31,44.54,44.54,0,0,1,13.83,8.6L202.18,36a4.37,4.37,0,0,1-3.84,2.33,5.71,5.71,0,0,1-3.09-1q-2-1.2-4.13-2.39a28.08,28.08,0,0,0-4.66-2.08,38.1,38.1,0,0,0-5.73-1.45,42.18,42.18,0,0,0-7.34-.57,31.45,31.45,0,0,0-12.19,2.27,25.79,25.79,0,0,0-9.29,6.49A29.24,29.24,0,0,0,146,49.77,39.74,39.74,0,0,0,143.9,63a41.32,41.32,0,0,0,2.21,14,29.39,29.39,0,0,0,6.17,10.36,26.58,26.58,0,0,0,9.45,6.46A31.38,31.38,0,0,0,173.7,96.07Z" transform="translate(0 -14.93)"/><path class="cls-2" d="M241,25.07a8.87,8.87,0,0,1-.82,3.78,10.27,10.27,0,0,1-5.35,5.2,9.75,9.75,0,0,1-3.91.79,9.37,9.37,0,0,1-3.81-.79A10.08,10.08,0,0,1,224,31.94a10.2,10.2,0,0,1-2.11-3.09,9.15,9.15,0,0,1-.79-3.78,9.75,9.75,0,0,1,.79-3.91A10,10,0,0,1,224,18a10.1,10.1,0,0,1,3.12-2.11,9.39,9.39,0,0,1,3.81-.79,9.77,9.77,0,0,1,3.91.79A10.41,10.41,0,0,1,238,18a10.18,10.18,0,0,1,2.17,3.15A9.45,9.45,0,0,1,241,25.07Zm-2.33,18.84v64.64H223.09V43.91Z" transform="translate(0 -14.93)"/><path class="cls-2" d="M277.46,109.56q-8.38,0-12.92-4.76T260,91.66V55.57h-6.55a3,3,0,0,1-3.09-3.28V46.12l10.4-1.7L264,26.77a3.12,3.12,0,0,1,1.17-2,3.7,3.7,0,0,1,2.3-.69h8.06V44.48h17V55.57h-17v35a6.87,6.87,0,0,0,1.51,4.73,5.13,5.13,0,0,0,4,1.7,7.32,7.32,0,0,0,2.43-.35,13.32,13.32,0,0,0,1.7-.72q.72-.38,1.29-.72a2.17,2.17,0,0,1,1.13-.35,1.79,1.79,0,0,1,1.13.35,5.35,5.35,0,0,1,.94,1l4.66,7.56a23.56,23.56,0,0,1-7.81,4.28A29.09,29.09,0,0,1,277.46,109.56Z" transform="translate(0 -14.93)"/><path class="cls-3" d="M323.39,76.48v32.07H306.44V17.45h29.67a52,52,0,0,1,15.81,2.14,30.47,30.47,0,0,1,11,6,23.45,23.45,0,0,1,6.43,9.2,32.12,32.12,0,0,1,2.08,11.72,32.37,32.37,0,0,1-2.21,12.13,25.18,25.18,0,0,1-6.62,9.48,30.79,30.79,0,0,1-11,6.17,49.07,49.07,0,0,1-15.5,2.21Zm0-13.23h12.73a25.52,25.52,0,0,0,8.13-1.17A15.1,15.1,0,0,0,350,58.75a13.71,13.71,0,0,0,3.4-5.29,20.26,20.26,0,0,0,1.13-7,18.38,18.38,0,0,0-1.13-6.61,13.09,13.09,0,0,0-3.4-5,15.14,15.14,0,0,0-5.73-3.18,26.9,26.9,0,0,0-8.13-1.1H323.39Z" transform="translate(0 -14.93)"/><path class="cls-3" d="M402.64,25.07a8.88,8.88,0,0,1-.82,3.78,10.28,10.28,0,0,1-5.36,5.2,9.75,9.75,0,0,1-3.91.79,9.37,9.37,0,0,1-3.81-.79,10.09,10.09,0,0,1-3.12-2.11,10.2,10.2,0,0,1-2.11-3.09,9.16,9.16,0,0,1-.79-3.78,9.76,9.76,0,0,1,.79-3.91A10,10,0,0,1,385.63,18a10.11,10.11,0,0,1,3.12-2.11,9.39,9.39,0,0,1,3.81-.79,9.77,9.77,0,0,1,3.91.79A10.41,10.41,0,0,1,399.65,18a10.19,10.19,0,0,1,2.17,3.15A9.46,9.46,0,0,1,402.64,25.07Zm-2.33,18.84v64.64H384.75V43.91Z" transform="translate(0 -14.93)"/><path class="cls-3" d="M439.12,109.56q-8.38,0-12.92-4.76t-4.54-13.14V55.57h-6.55A3,3,0,0,1,412,52.29V46.12l10.39-1.7,3.28-17.64a3.11,3.11,0,0,1,1.17-2,3.69,3.69,0,0,1,2.3-.69h8.06V44.48h17V55.57h-17v35a6.87,6.87,0,0,0,1.51,4.73,5.13,5.13,0,0,0,4,1.7,7.32,7.32,0,0,0,2.43-.35,13.33,13.33,0,0,0,1.7-.72q.72-.38,1.29-.72a2.17,2.17,0,0,1,1.13-.35,1.79,1.79,0,0,1,1.13.35,5.32,5.32,0,0,1,.95,1l4.66,7.56a23.56,23.56,0,0,1-7.81,4.28A29.08,29.08,0,0,1,439.12,109.56Z" transform="translate(0 -14.93)"/><path class="cls-3" d="M512.07,57.58A7.77,7.77,0,0,1,510.72,59a3.12,3.12,0,0,1-1.92.5,4.28,4.28,0,0,1-2.33-.72q-1.13-.72-2.71-1.64A20.33,20.33,0,0,0,500,55.47a17.25,17.25,0,0,0-5.39-.72,16.43,16.43,0,0,0-7.18,1.48,13.61,13.61,0,0,0-5.13,4.25,19.15,19.15,0,0,0-3.06,6.71,36,36,0,0,0-1,8.91,34.93,34.93,0,0,0,1.1,9.2,19.63,19.63,0,0,0,3.18,6.77,13.69,13.69,0,0,0,5,4.16,15.27,15.27,0,0,0,6.68,1.42,16.55,16.55,0,0,0,6-.91,19,19,0,0,0,3.87-2q1.57-1.1,2.74-2a4.14,4.14,0,0,1,2.62-.91,3.16,3.16,0,0,1,2.83,1.45l4.47,5.67a28.13,28.13,0,0,1-5.61,5.07,30.33,30.33,0,0,1-6.27,3.28,31.89,31.89,0,0,1-6.71,1.73,47.67,47.67,0,0,1-6.87.5,28.68,28.68,0,0,1-11.28-2.24,26.3,26.3,0,0,1-9.23-6.52,31.39,31.39,0,0,1-6.24-10.49,40.5,40.5,0,0,1-2.3-14.14,41.11,41.11,0,0,1,2-13.2,29.88,29.88,0,0,1,6-10.52,27.58,27.58,0,0,1,9.83-7,33.87,33.87,0,0,1,13.48-2.52,32.09,32.09,0,0,1,12.69,2.33,31,31,0,0,1,9.8,6.68Z" transform="translate(0 -14.93)"/><path class="cls-3" d="M526.75,108.55V14.93h15.56v36a33,33,0,0,1,8.32-5.8,24.1,24.1,0,0,1,10.65-2.21,23.18,23.18,0,0,1,9.39,1.8,18.55,18.55,0,0,1,6.84,5,22.17,22.17,0,0,1,4.16,7.75,33,33,0,0,1,1.42,9.92v41.14H567.51V67.41q0-5.92-2.74-9.17T556.55,55A16.21,16.21,0,0,0,549,56.83a27.1,27.1,0,0,0-6.68,5v46.75Z" transform="translate(0 -14.93)"/><path class="cls-3" d="M98.1,15.62h-68L46.15,31.68a9.06,9.06,0,0,1,5.77-.22,9.26,9.26,0,0,1,6.44,6.91A9.06,9.06,0,0,1,58,43.51l9.84,10.56a9.21,9.21,0,1,1-5,4.94L53.2,48.67l-.35.14V76.24a9.21,9.21,0,1,1-7,0V48.81A9.18,9.18,0,0,1,41,36.47L20.15,15.62H6.9A6.9,6.9,0,0,0,0,22.51v79.76a6.9,6.9,0,0,0,6.9,6.9H54.14l-4.6,23,31.47-23H98.1a6.9,6.9,0,0,0,6.9-6.9V22.51A6.9,6.9,0,0,0,98.1,15.62Z" transform="translate(0 -14.93)"/></svg>